<svg xmlns="http://www.w3.org/2000/svg" width="240.945" height="57.402" viewBox="0 0 240.945 57.402"><g transform="translate(-28.346 -27.992)"><path d="M148.848,85.394c66.484,0,120.443-9.795,120.443-28.7s-54-28.7-120.443-28.7c-66.679,0-120.5,9.981-120.5,28.7C28.346,75.6,82.311,85.394,148.848,85.394Z" fill="#fff"/><path d="M148.848,83.533c-71.157,0-118.025-10.87-118.025-26.839,0-15.876,47.172-26.841,118.025-26.841,71.089,0,117.965,10.878,117.965,26.841S219.961,83.533,148.848,83.533Z"/><path d="M91.333,68.809l.009-15.4c0-2.136-1.172-3.261-3.012-3.261s-2.982,1.339-2.984,3.476l0,15.184H78.279V53.673c0-5.939,3.692-9.735,8.989-9.735,4.117,0,6.844,2.246,7.539,4.437.7-2.191,3.426-4.437,7.543-4.437,5.295,0,8.988,3.8,8.988,9.735V68.809h-7.062l.012-15.184c0-2.137-1.172-3.476-3.012-3.476s-2.985,1.125-2.985,3.261l0,15.4Z" fill="#fff"/><path d="M153.952,56.668a6.124,6.124,0,1,0,6.152-6.206A6.062,6.062,0,0,0,153.952,56.668Z" fill="#fff"/><path d="M200.647,56.724a6.124,6.124,0,1,0,6.152-6.208A6.065,6.065,0,0,0,200.647,56.724Zm-7.113-.056c0-7.327,5.83-12.73,13.265-12.73,7.381,0,13.213,5.4,13.213,12.73,0,7.379-5.832,12.782-13.213,12.782C199.364,69.45,193.534,64.047,193.534,56.668Z" fill="#fff"/><path d="M175.051,68.809V44.579h5.992l.748,3.371a5.583,5.583,0,0,1,5.348-3.907,6.641,6.641,0,0,1,4.92,2.3l-3.207,5.938a4.624,4.624,0,0,0-3.207-1.446c-1.553,0-3.533.91-3.533,3.051V68.809Z" fill="#fff"/><path d="M160.1,69.45c-7.436,0-13.266-5.4-13.266-12.782,0-7.327,5.83-12.73,13.266-12.73a12.086,12.086,0,0,1,8.555,3.207l-4.17,5.187a6.189,6.189,0,1,0,.013,8.688l4.157,5.223A12.373,12.373,0,0,1,160.1,69.45Z" fill="#3896dd"/><rect width="23.111" height="6.362" transform="translate(117.852 53.513)" fill="#fff"/></g></svg>